<?xml version="1.0" encoding="utf-8"?>
<!-- Generator: Adobe Illustrator 15.1.0, SVG Export Plug-In . SVG Version: 6.00 Build 0)  -->
<!DOCTYPE svg PUBLIC "-//W3C//DTD SVG 1.0//EN" "http://www.w3.org/TR/2001/REC-SVG-20010904/DTD/svg10.dtd">
<svg version="1.0" id="Layer_1" xmlns="http://www.w3.org/2000/svg" xmlns:xlink="http://www.w3.org/1999/xlink" x="0px" y="0px"
	 width="589.391px" height="162.934px" viewBox="0 0 589.391 162.934" enable-background="new 0 0 589.391 162.934"
	 xml:space="preserve">
<path fill="#3333AA" d="M0,148.823c0-0.794,0.464-1.522,1.392-2.189c0.928-0.661,2.02-1.255,3.278-1.783
	c1.261-0.534,2.52-0.995,3.777-1.395c1.258-0.4,2.217-0.728,2.88-0.994c6.358,0.8,12.716,1.455,19.074,1.989
	c6.361,0.534,12.719,0.794,19.077,0.794c2.383,0,5.697-0.03,9.936-0.097c4.238-0.066,8.875-0.297,13.907-0.697
	c5.033-0.4,10.133-1.025,15.299-1.886c5.167-0.861,9.872-2.092,14.104-3.681c4.245-1.589,7.689-3.572,10.333-5.955
	c2.656-2.389,3.978-5.366,3.978-8.944c0-2.917-0.631-5.53-1.892-7.853c-1.255-2.316-2.911-4.366-4.96-6.155
	c-2.056-1.789-4.341-3.281-6.858-4.469c-0.928-0.533-1.922-0.994-2.978-1.395c1.055,0.534,2.05,1.061,2.978,1.589
	c2.383,1.328,4.536,2.947,6.458,4.869c1.922,1.922,3.48,4.045,4.669,6.361c1.188,2.316,1.789,4.936,1.789,7.847
	c0,3.178-1.158,5.858-3.475,8.047c-2.323,2.189-5.3,4.008-8.944,5.464c-3.645,1.455-7.683,2.583-12.122,3.383
	c-4.439,0.789-8.841,1.383-13.213,1.783c-4.372,0.4-8.411,0.631-12.122,0.698c-3.708,0.066-6.622,0.097-8.741,0.097
	c-6.755,0-13.546-0.23-20.369-0.697c-6.822-0.461-13.61-1.019-20.365-1.686c2.383-0.661,4.802-1.158,7.252-1.492
	c2.45-0.328,4.933-0.498,7.452-0.498c4.239,0,8.411,0.037,12.516,0.103c4.108,0.067,8.213,0.097,12.322,0.097
	c4.899,0,9.735-0.097,14.505-0.297c4.766-0.2,9.666-0.691,14.699-1.492l0.6,2.389c1.983-0.4,4.506-1.031,7.55-1.892
	c3.044-0.861,5.991-1.953,8.841-3.274c2.85-1.328,5.3-2.983,7.355-4.973c2.056-1.989,3.074-4.305,3.074-6.949
	c0-3.844-1.383-7.222-4.172-10.139c-2.777-2.911-6.319-5.53-10.624-7.847s-9.181-4.342-14.608-6.064s-10.763-3.244-15.997-4.566
	c-5.23-1.328-10.166-2.517-14.802-3.578c-4.636-1.062-8.347-2.053-11.127-2.98v1.191c2.78,1.062,6.425,2.153,10.927,3.281
	c4.505,1.122,9.375,2.347,14.605,3.675c5.233,1.328,10.5,2.813,15.793,4.469c5.3,1.662,10.102,3.614,14.408,5.864
	c4.305,2.25,7.822,4.833,10.533,7.75c2.717,2.917,4.075,6.228,4.075,9.933c0,2.122-0.995,3.972-2.978,5.566
	c-1.989,1.589-4.342,2.947-7.059,4.069c-2.716,1.128-5.463,2.025-8.247,2.687c-2.777,0.661-4.9,1.122-6.355,1.389
	c1.722-0.4,3.941-0.958,6.658-1.686c2.71-0.728,5.36-1.692,7.943-2.886c2.583-1.188,4.803-2.614,6.658-4.269
	s2.777-3.608,2.777-5.858c0-3.711-1.455-6.828-4.366-9.338c-2.917-2.522-6.755-4.772-11.528-6.761
	c-4.772-1.983-10.199-3.778-16.293-5.366c-6.094-1.589-12.352-3.311-18.777-5.167s-12.683-3.972-18.777-6.355
	c-6.094-2.386-11.524-5.367-16.293-8.941c-4.77-3.578-8.611-7.816-11.524-12.719c-2.914-4.9-4.372-10.794-4.372-17.682
	c0-6.755,1.622-12.486,4.869-17.188c3.244-4.702,7.416-8.544,12.516-11.524c5.103-2.98,10.7-5.133,16.791-6.458
	c6.094-1.325,11.988-1.989,17.686-1.989c8.344,0,16.524,1.194,24.541,3.578c8.017,2.386,15.596,5.697,22.751,9.936
	c-0.8,0.264-1.261,0.628-1.395,1.092s-0.23,0.961-0.297,1.492c-0.066,0.53-0.2,0.994-0.394,1.392c-0.2,0.397-0.63,0.594-1.297,0.594
	c-0.521,0-1.553-0.23-3.075-0.694s-3.147-0.995-4.869-1.589c-1.722-0.597-3.377-1.161-4.966-1.688
	c-1.595-0.531-2.65-0.928-3.184-1.195l-0.594,1.789c1.195,0.53,2.753,1.292,4.669,2.286c1.922,0.994,3.778,2.186,5.567,3.578
	c1.783,1.389,3.311,2.88,4.572,4.469c1.255,1.589,1.88,3.181,1.88,4.77c0,1.722-0.789,2.583-2.377,2.583
	c-1.989,0-4.341-0.53-7.058-1.589c-2.717-1.061-5.724-2.219-9.035-3.478c-3.317-1.258-6.858-2.419-10.636-3.478
	c-3.774-1.061-7.583-1.592-11.424-1.592c-2.517,0-5.463,0.233-8.841,0.697c-3.378,0.464-6.625,1.325-9.739,2.583
	c-3.111,1.258-5.728,2.98-7.847,5.167c-2.119,2.186-3.181,4.933-3.181,8.247c0,3.044,1.425,5.627,4.272,7.75
	c2.85,2.117,6.625,4.039,11.328,5.761c4.702,1.722,10.033,3.378,15.993,4.966c5.964,1.592,12.088,3.347,18.383,5.267
	c6.288,1.922,12.419,4.139,18.38,6.655c5.96,2.52,11.291,5.566,15.996,9.141c4.7,3.581,8.478,7.813,11.328,12.719
	c2.844,4.899,4.269,10.666,4.269,17.288c0,6.488-1.322,11.982-3.978,16.494c-2.644,4.5-6.155,8.241-10.527,11.218
	c-4.372,2.983-9.338,5.3-14.905,6.961c-5.561,1.649-11.291,2.911-17.185,3.771c-5.894,0.861-11.728,1.395-17.488,1.589
	c-5.76,0.2-10.96,0.303-15.596,0.303H35.568c-1.192,0-2.814-0.037-4.866-0.103c-2.056-0.067-4.075-0.2-6.061-0.395
	c-1.989-0.2-3.711-0.57-5.167-1.091c-1.458-0.534-2.186-1.195-2.186-1.989l0.2-0.995c5.43,0.267,10.793,0.497,16.093,0.691
	c5.3,0.2,10.664,0.303,16.094,0.303h15.102c4.505-0.134,9.011-0.4,13.51-0.801l-6.755,0.4H55.439c-12.452,0-24.704-0.4-36.759-1.188
	c0.264-1.061,0.397-1.795,0.397-2.189c0-0.528-0.134-1.062-0.397-1.589c-0.267,0-0.63,0.03-1.094,0.103
	c-0.464,0.061-1.025,0.097-1.689,0.097c-1.456,0-3.081-0.067-4.866-0.2c-1.789-0.133-3.511-0.394-5.167-0.794
	s-3.047-0.958-4.175-1.686C0.564,150.775,0,149.884,0,148.823z M122.002,143.656c-2.25,1.983-4.639,3.645-7.149,4.966
	c-2.256,1.195-4.572,2.316-6.961,3.378c2.389-0.794,4.706-1.722,6.961-2.784C117.363,148.162,119.752,146.306,122.002,143.656z"/>
<path fill="#333333" d="M372.974,92.001c-2.644,2.386-5.827,4.703-9.532,6.956c-3.711,2.252-7.556,4.339-11.527,6.258
	c-3.972,1.919-7.883,3.581-11.722,4.969c-3.845,1.389-7.289,2.48-10.333,3.281c-3.05,0.922-5.833,1.819-8.344,2.68
	c-2.522,0.861-4.905,1.819-7.155,2.88c-2.256,1.061-4.506,2.25-6.755,3.578c-2.256,1.322-4.572,2.917-6.956,4.766
	c-1.722,1.328-3.147,2.383-4.275,3.184c-1.128,0.789-2.05,1.456-2.777,1.983c-0.728,0.528-1.328,0.928-1.795,1.195
	c-0.461,0.267-0.892,0.527-1.286,0.794l7.149,0.594c5.567,0.527,10.933,1.097,16.099,1.691c5.167,0.594,10.394,1.225,15.693,1.886
	c2.256,0.261,3.578,0.43,3.979,0.497c0.394,0.067,0.788,0.103,1.188,0.103c10.866,0.655,18.482,1.152,22.849,1.486
	c4.378,0.333,6.561,1.292,6.561,2.88c0,0.534-0.066,0.861-0.199,0.994c-5.428-0.267-10.697-0.764-15.797-1.492
	c-5.1-0.728-11.097-1.225-17.985-1.492c-2.644-0.394-5.725-0.758-9.241-1.091c-3.505-0.328-7.149-0.594-10.928-0.794
	c-3.771-0.2-7.543-0.364-11.327-0.491c-3.771-0.133-7.313-0.206-10.624-0.206c-3.05,0-5.76,0.036-8.149,0.103
	c-2.383,0.067-4.306,0.23-5.761,0.497c3.578,0,7.81,0.067,12.716,0.2s9.938,0.297,15.105,0.497
	c5.166,0.194,10.229,0.461,15.195,0.789c4.973,0.333,9.242,0.764,12.819,1.298l6.949,0.994c4.639,0.655,8.975,1.055,13.02,1.188
	c4.038,0.134,8.446,0.461,13.213,0.995c-0.667,0.661-0.994,1.322-0.994,1.989c0,1.189,0.824,1.722,2.486,1.589
	c1.655-0.133,4.002,0,7.052,0.394c2.65,1.062,4.536,2.02,5.664,2.88c1.121,0.861,1.691,1.692,1.691,2.486s-0.533,1.552-1.595,2.286
	c-1.062,0.728-2.383,1.292-3.972,1.692l-4.973,1.389c-5.427-0.928-10.624-1.559-15.596-1.886
	c-4.967-0.333-10.431-0.831-16.391-1.492l-5.167-0.594c-4.238-0.533-8.41-0.994-12.521-1.395c-4.1-0.4-8.344-0.794-12.71-1.188
	l-21.066-1.595c-1.455-0.127-3.044-0.23-4.766-0.297c-1.722-0.066-3.511-0.097-5.366-0.097h-3.578c-1.195,0-2.45,0.061-3.778,0.194
	l-3.578,0.2v-15.299c0-4.105,0.995-7.319,2.984-9.635c1.989-2.323,4.172-4.075,6.561-5.27c1.188-0.661,2.383-1.188,3.578-1.589
	c-0.267,0-0.534,0.067-0.801,0.2c-1.989,0.661-3.941,1.625-5.857,2.88c-1.922,1.261-3.578,2.947-4.973,5.069
	c-1.388,2.122-2.086,4.899-2.086,8.344l-0.194,15.699h19.271l12.122,0.595c6.228,0.394,12.286,0.928,18.179,1.588
	c5.9,0.661,11.759,1.389,17.586,2.189l6.36,0.995c5.033,0.528,9.739,1.055,14.105,1.589c4.372,0.527,8.877,1.128,13.51,1.783
	c-1.855,0.4-3.868,0.764-6.058,1.098s-4.603,0.491-7.253,0.491c-2.516,0-4.771-0.127-6.755-0.395
	c-1.982-0.261-4.306-0.527-6.955-0.794l-6.355-0.794c-4.639-0.661-9.077-1.225-13.315-1.692c-4.239-0.461-8.805-0.958-13.711-1.486
	l-1.194-2.189H286.54c-0.661,0-1.389,0.037-2.183,0.097c-0.8,0.073-1.722,0.103-2.783,0.103h-4.966c-1.722,0-3.444-0.03-5.167-0.103
	c-1.722-0.061-3.578-0.23-5.566-0.491l-5.561-0.794v-17.288c0-4.372,0.958-7.914,2.88-10.63c1.922-2.717,4.135-4.87,6.658-6.458
	c2.516-1.595,5.033-2.85,7.549-3.778c2.517-0.922,4.433-1.783,5.761-2.583l4.572-3.578c5.293-3.972,10.86-7.483,16.694-10.53
	c5.821-3.047,11.922-5.43,18.276-7.152l2.983-0.794c2.911-1.458,6.027-2.717,9.339-3.775c3.311-1.061,6.421-2.386,9.338-3.975
	l-0.594-0.995c-3.312,1.458-6.658,2.717-10.042,3.778c-3.372,1.058-6.258,2.183-8.642,3.377l-2.977,0.794
	c-6.622,1.855-12.953,4.372-18.98,7.55c-6.027,3.18-11.485,6.691-16.391,10.533l-3.972,3.377h-0.801
	c-0.394,0-0.921,0.127-1.588,0.395l1.989-0.995c7.155-6.091,14.141-10.827,20.963-14.205c6.822-3.377,13.613-6.061,20.368-8.047
	c5.033-1.855,9.139-3.277,12.322-4.272c3.178-0.995,6.161-2.219,8.938-3.675c-5.167-1.194-9.739-2.022-13.711-2.486
	c-3.972-0.46-7.683-0.694-11.127-0.694c-1.723,0-3.378,0.034-4.967,0.1c-1.595,0.067-3.184,0.164-4.771,0.297
	c-0.922-0.133-1.856-0.197-2.777-0.197h-2.584c-4.639,0-9.107,0.464-13.413,1.389c-4.305,0.928-8.38,2.186-12.225,3.775
	c0-0.925-0.364-1.686-1.091-2.283c-0.728-0.597-1.092-1.358-1.092-2.286c0-0.794,0.897-1.789,2.68-2.98
	c1.795-1.191,5.136-2.316,10.042-3.377l-0.4-1.986c-4.505,0.661-8.417,1.258-11.728,1.786c-3.311,0.531-6.088,0.797-8.344,0.797
	c-1.456,0-2.547-0.066-3.274-0.2c-0.728-0.13-1.225-0.598-1.492-1.392c0-0.264,0.061-0.528,0.194-0.794
	c0.133-0.264,0.206-0.528,0.206-0.794c2.644-2.65,5.895-5,9.733-7.052c3.838-2.056,8.113-3.778,12.813-5.167
	c4.706-1.392,9.702-2.453,15.002-3.181s10.733-1.091,16.3-1.091c4.099,0,8.708,0.331,13.808,0.991
	c5.1,0.664,10.763,1.525,16.984,2.583c1.328,0.397,2.522,0.764,3.578,1.094c1.061,0.331,2.183,0.694,3.384,1.092
	c1.188,0.397,2.51,0.861,3.966,1.392c1.461,0.53,3.25,1.191,5.372,1.986c-0.134-0.13,0.758,0.2,2.681,0.995
	c1.916,0.794,3.875,2.252,5.857,4.372L372.974,92.001z M258.719,137.107c0-3.05,0.37-5.561,1.097-7.55
	c0.728-1.989,1.752-3.711,3.081-5.166c-1.061,1.588-1.958,3.377-2.686,5.36c-0.728,1.989-1.092,4.172-1.092,6.561v18.677
	l6.161,1.188c1.855,0.4,3.711,0.667,5.566,0.8c1.855,0.134,3.639,0.194,5.36,0.194c1.856,0,3.511-0.03,4.973-0.097
	c1.455-0.066,2.911-0.097,4.366-0.097l15.305,0.194l-15.105,0.2h-2.189c-1.188,0-2.48,0.03-3.869,0.103
	c-1.395,0.061-2.886,0.097-4.475,0.097c-1.456,0-3.044-0.066-4.766-0.2c-1.722-0.127-3.511-0.395-5.361-0.794l-6.367-1.188V137.107z
	 M278.79,113.658l-4.172,2.784c-1.589,1.061-3.481,2.116-5.664,3.177c-2.183,1.061-4.208,2.65-6.058,4.772
	c2.517-3.711,5.561-6.458,9.138-8.247s6.361-2.947,8.344-3.48L278.79,113.658z M288.128,130.352c-1.855,0-3.475,0.698-4.863,2.086
	c-1.395,1.389-2.486,2.347-3.281,2.88l0.395,0.2c0.667-0.4,1.922-1.128,3.778-2.189c1.855-1.055,3.838-2.183,5.96-3.377
	c2.123-1.195,4.172-2.347,6.161-3.475c1.989-1.128,3.511-2.025,4.572-2.68c-0.667,0.394-1.625,0.891-2.886,1.485
	c-1.255,0.601-2.547,1.225-3.869,1.886c-1.328,0.667-2.553,1.298-3.681,1.892C289.292,129.655,288.529,130.085,288.128,130.352z
	 M280.579,119.025c2.25-0.794,3.711-1.789,4.372-2.978l1.189-0.8c2.389-1.855,4.875-3.808,7.458-5.858
	c2.583-2.056,5.263-3.941,8.041-5.664c-3.706,1.853-7.083,4.136-10.127,6.853c-3.05,2.716-6.495,5.263-10.333,7.652
	c-0.667,0.4-1.395,0.794-2.189,1.188L280.579,119.025z"/>
<path fill="#AA3333" d="M224.006,160.35c0.534-3.705,1.031-8.041,1.492-13.013c0.461-4.967,0.897-9.969,1.292-15.002
	c0.394-5.033,0.794-9.969,1.195-14.802c0.4-4.833,0.794-9.042,1.188-12.619c-0.661,3.578-1.255,7.683-1.783,12.322
	c-0.534,4.633-1.067,9.405-1.589,14.305c-0.534,4.906-1.067,9.769-1.595,14.608c-0.528,4.833-0.988,9.169-1.389,13.013
	c-1.989-1.322-2.983-3.117-2.983-5.366c0-2.65,0.066-4.87,0.2-6.652c0.133-1.795,0.333-3.881,0.6-6.264l2.183-1.983
	c-0.133-0.667-0.2-1.261-0.2-1.795v-1.982c0-3.05,0.333-6.525,0.995-10.436c0.661-3.905,1.425-7.877,2.286-11.922
	c0.861-4.039,1.625-7.943,2.28-11.721c0.667-3.778,0.995-7.052,0.995-9.836l-2.383-0.594c-0.261,3.178-0.661,6.786-1.194,10.83
	c-0.528,4.039-1.092,8.21-1.686,12.516c-0.594,4.305-1.158,8.58-1.686,12.813c-0.267,2.256-0.534,4.378-0.8,6.361
	c0.267-3.705,0.594-7.683,0.994-11.921c0.667-6.094,1.358-12.152,2.086-18.18c0.728-6.027,1.425-11.952,2.086-17.785
	c0.667-5.828,1.328-11.194,1.989-16.094c0-1.989,0.497-4.139,1.492-6.458s1.686-4.736,2.086-7.252
	c0.794,0.264,1.455,0.397,1.989,0.397h1.389c1.328,0,2.189,0.297,2.583,0.894c0.394,0.594,0.594,1.425,0.594,2.483v0.995
	l1.789,0.594c1.062-1.986,2.316-3.575,3.772-4.77c1.461-1.191,2.923-1.786,4.378-1.786c3.178,0,4.766,3.377,4.766,10.133
	c0,3.578-0.364,7.386-1.091,11.424c-0.728,4.042-1.091,7.983-1.091,11.825v2.586c0,4.232-0.467,8.841-1.395,13.808
	c-0.921,4.966-1.953,9.999-3.081,15.099c-1.127,5.1-2.146,10.036-3.08,14.802c-0.922,4.772-1.389,9.145-1.389,13.116
	c0,0.928,0.066,1.922,0.2,2.978c0.133,1.067,0.194,2.056,0.194,2.983c0,1.989-0.364,3.214-1.091,3.674
	c-0.728,0.461-1.625,0.698-2.681,0.698c0-1.722-0.066-3.838-0.2-6.361c-0.127-2.51-0.2-4.766-0.2-6.755
	c-0.267,1.455-0.394,3.444-0.394,5.967c0,2.51-0.134,4.899-0.395,7.149h-2.983v2.383c-1.194,2.123-2.783,3.178-4.766,3.178
	c-0.934,0-1.989-0.261-3.184-0.789C225.595,161.611,224.673,161.017,224.006,160.35z M264.937,7.75
	c-2.25,1.325-4.305,3.047-6.155,5.167c-1.855,2.119-3.778,4.175-5.767,6.161c1.194-0.794,2.255-1.656,3.184-2.583
	c0.928-0.928,1.886-1.855,2.88-2.783c0.994-0.925,2.049-1.853,3.177-2.78s2.419-1.789,3.875-2.583
	c0.394,0.53,0.764,0.994,1.097,1.392c0.328,0.397,0.498,0.794,0.498,1.191l-4.572,4.569c0-0.264-0.23-0.531-0.697-0.794
	c-0.467-0.264-0.831-0.397-1.092-0.397c-0.4,1.325-1.061,2.383-1.989,3.178c-0.928,0.797-1.855,1.525-2.783,2.189
	c-0.922,0.661-1.855,1.389-2.777,2.183c-0.934,0.794-1.589,1.855-1.989,3.18v0.397c0,0.133,0.194,0.2,0.594,0.2l9.933-9.342
	l-3.772,3.775c-1.855,1.855-3.808,3.745-5.857,5.664c-2.062,1.922-3.978,3.611-5.767,5.069c-1.789,1.456-2.88,2.183-3.28,2.183
	l-0.194-0.197c-0.934-0.267-1.892-0.397-2.886-0.397s-2.013-0.066-3.081-0.2c0-1.058-0.158-2.186-0.497-3.377
	c-0.328-1.191-0.491-2.119-0.491-2.78c0-0.664,0.333-0.995,0.988-0.995c0-0.397-0.23-1.028-0.691-1.889
	c-0.46-0.861-0.958-1.853-1.492-2.98c-0.527-1.125-1.024-2.316-1.492-3.575c-0.461-1.258-0.691-2.55-0.691-3.875
	c0-1.325,0.558-2.616,1.686-3.875s2.45-2.353,3.978-3.281c1.522-0.928,3.008-1.722,4.469-2.383c1.456-0.661,2.517-1.125,3.178-1.392
	c0.527,0,0.734-0.297,0.6-0.895C246.927,0.3,247.122,0,247.655,0l3.578,1.194c-0.267,0.661-1.092,1.756-2.486,3.278
	s-2.414,2.617-3.081,3.277c0.928-0.661,2.02-1.655,3.281-2.98c1.255-1.325,2.213-2.316,2.88-2.98
	c0.661,0.267,1.261,0.53,1.789,0.794c0.528,0.267,0.928,0.397,1.195,0.397l0.594-0.594c0.921,0,1.953,0.197,3.08,0.594
	c1.128,0.4,2.147,0.861,3.081,1.392c0.922,0.531,1.722,1.125,2.377,1.789C264.61,6.825,264.937,7.353,264.937,7.75z
	 M221.028,137.902l0.395-4.372C221.289,135.119,221.156,136.574,221.028,137.902z"/>
<path fill="#333333" d="M488.452,154.584c0-0.661,0.2-1.456,0.598-2.383c0.396-0.928,0.594-1.922,0.594-2.983
	c0.397-3.177,0.664-5.458,0.798-6.852c0.13-1.395,0.197-2.62,0.197-3.675c0-5.567-0.167-11.558-0.498-17.985
	c-0.33-6.422-0.694-12.616-1.091-18.577c0-1.856-0.033-4.042-0.101-6.558c-0.066-2.517-0.23-4.502-0.497-5.961
	c0.397-4.636,0.728-9.205,0.994-13.71c0.265-4.502,0.397-9.075,0.397-13.71v-4.966c0-1.722-0.066-3.444-0.2-5.167
	c0.397,0.397,0.798,0.594,1.195,0.594c0.527,0,1.091-0.197,1.688-0.594c0.594-0.397,1.158-0.597,1.688-0.597
	c0.928,0,1.688,0.994,2.283,2.98c0.598,1.989,0.895,6.361,0.895,13.116h1.789c0.664-7.419,1.688-13.313,3.08-17.686
	s2.813-6.558,4.272-6.558c0.66,0,1.722,1.425,3.18,4.272c1.456,2.85,2.184,7.319,2.184,13.414l2.186-3.578
	c1.459-1.722,3.081-3.508,4.869-5.363c1.789-1.855,3.809-3.511,6.062-4.966c2.253-1.458,4.769-2.683,7.549-3.678
	c2.784-0.995,5.961-1.489,9.542-1.489c6.889,0,12.88,1.556,17.979,4.669c5.1,3.111,9.368,7.152,12.813,12.119
	c3.444,4.969,6.258,10.6,8.447,16.891c2.189,6.292,3.875,12.649,5.063,19.074c1.2,6.425,1.989,12.619,2.39,18.583
	c0.399,5.955,0.594,11.061,0.594,15.293c0,3.844-0.23,6.13-0.691,6.858c-0.467,0.734-1.298,1.158-2.486,1.292
	c-0.267-10.199-0.928-20.599-1.988-31.195c-1.056-10.597-3.578-20.863-7.55-30.798c3.577,10.466,5.863,20.766,6.858,30.898
	c0.994,10.133,1.491,20.302,1.491,30.501c-0.8-0.4-1.528-0.594-2.188-0.594c-0.528,0-0.995,0.194-1.389,0.594
	c0,1.055,0.061,2.183,0.193,3.378c0.134,1.061,0.23,2.116,0.304,3.177c0.061,1.062,0.097,2.056,0.097,2.978
	c-0.8,3.05-1.589,5.239-2.389,6.561c-0.789,1.322-1.517,1.989-2.184,1.989c-0.794,0-1.455-0.364-1.988-1.091
	c-0.528-0.728-1.025-1.625-1.492-2.687c-0.461-1.061-0.922-2.219-1.383-3.475c-0.467-1.261-1.098-2.486-1.892-3.674
	c0.267-2.256,0.461-4.075,0.595-5.47c0.133-1.389,0.199-2.547,0.199-3.475c0-3.578-0.066-7.883-0.199-12.916
	c-0.134-5.033-0.498-10.303-1.092-15.796c-0.595-5.497-1.522-10.994-2.777-16.494c-1.262-5.497-2.983-10.397-5.166-14.702
	c-2.189-4.305-4.937-7.816-8.247-10.533c-3.312-2.714-7.289-4.072-11.922-4.072c-3.184,0-5.997,1.058-8.447,3.178
	c-2.452,2.122-4.572,4.836-6.36,8.146c-1.786,3.314-3.345,6.922-4.67,10.831c-1.324,3.908-2.383,7.649-3.177,11.227
	c1.191-3.711,2.416-7.486,3.675-11.327c1.258-3.842,2.783-7.35,4.571-10.53c1.786-3.18,3.872-5.794,6.259-7.85
	c2.383-2.053,5.166-3.081,8.344-3.081c4.111,0,7.652,1.128,10.636,3.378c2.978,2.252,5.494,5.166,7.544,8.744
	c2.055,3.578,3.711,7.649,4.972,12.222c1.256,4.569,2.22,9.205,2.881,13.907c0.661,4.703,1.091,9.272,1.291,13.71
	c0.194,4.439,0.298,8.247,0.298,11.424c0,2.517-0.03,5.033-0.104,7.556c-0.061,2.511-0.157,5.094-0.291,7.75
	c-1.194-5.04-2.086-10.303-2.687-15.803c-0.594-5.494-1.225-10.927-1.886-16.291c-0.667-5.367-1.491-10.533-2.486-15.5
	c-0.994-4.969-2.413-9.572-4.269-13.811l1.389-1.986c-1.328-3.047-2.813-5.4-4.47-7.055c-1.661-1.655-3.28-2.88-4.869-3.675
	s-3.05-1.258-4.372-1.392c-1.321-0.133-2.183-0.197-2.583-0.197c-3.311,0-6.258,1.192-8.841,3.575
	c-2.583,2.386-4.836,5.597-6.756,9.639c-1.922,4.039-3.61,8.708-5.069,14.008c-1.455,5.3-2.713,10.86-3.774,16.69
	c-1.059,5.831-1.986,11.688-2.78,17.583s-1.458,11.424-1.989,16.591h1.789c0.664-4.5,1.358-9.472,2.086-14.899
	c0.73-5.427,1.525-10.964,2.386-16.591c0.861-5.63,1.887-11.094,3.078-16.394c1.194-5.3,2.616-10.069,4.274-14.308
	c1.656-4.239,3.608-7.683,5.861-10.333c2.119-2.516,4.702-3.972,7.749-4.369c-2.913,0.661-5.366,2.517-7.352,5.563
	c-2.12,3.177-3.976,7.085-5.564,11.722c-1.588,4.639-3.014,9.705-4.271,15.202c-1.259,5.497-2.417,10.763-3.478,15.796
	l-3.976,29.009c-0.527,1.856-0.928,3.511-1.191,4.973l-0.794,4.172c-0.264,1.322-0.53,2.741-0.794,4.269
	c-0.268,1.522-0.598,3.274-0.995,5.263l-0.597,2.389h-1.192l-20.068-6.755c-0.661-0.133-1.158-0.333-1.488-0.601
	C489.212,155.317,488.849,154.984,488.452,154.584z M523.025,52.65c-2.646,2.253-4.735,4.672-6.258,7.255
	c-1.522,2.58-2.947,5.2-4.272,7.847v0.2c1.855-3.841,4.439-7.75,7.75-11.725c3.178-3.708,7.419-6.491,12.716-8.344
	c-1.722,0.527-3.377,1.058-4.966,1.589C526.139,50.133,524.483,51.195,523.025,52.65z M546.872,46.095
	c-0.667-0.133-1.589-0.2-2.783-0.2c4.238,1.061,8.216,2.219,11.921,3.478c3.711,1.258,7.223,3.744,10.533,7.452
	c-2.256-3.047-5.203-5.43-8.841-7.152C554.057,47.95,550.449,46.756,546.872,46.095z M552.232,68.747
	c-1.056-0.794-2.28-1.425-3.675-1.889c-1.389-0.464-3.081-1.091-5.063-1.886l-0.2-0.397c2.256,0.13,4.238,0.627,5.961,1.489
	c1.722,0.861,3.378,2.353,4.966,4.472L552.232,68.747z M566.943,57.222c1.855,2.252,3.577,4.836,5.166,7.75s2.978,5.497,4.172,7.75
	c-1.328-3.047-2.583-5.83-3.777-8.347S569.453,59.475,566.943,57.222z"/>
<path fill="#33AA33" d="M416.843,35.962c0.134,0.667,0.861,0.995,2.187,0.995h0.396c0.798,0,1.325,0.066,1.592,0.194
	c6.889,2.123,13.744,5.203,20.566,9.241c6.821,4.039,12.982,8.877,18.477,14.505c5.5,5.633,9.933,12.025,13.316,19.174
	c3.377,7.156,5.069,14.838,5.069,23.055c0,7.155-1.396,14.038-4.179,20.666c-2.783,6.622-6.621,12.382-11.527,17.282
	c5.039-4.366,9.048-9.835,12.024-16.391c2.978-6.555,4.47-13.614,4.47-21.163c0-8.477-1.783-16.391-5.36-23.74
	c-3.578-7.355-8.15-13.947-13.717-19.774c-5.561-5.828-11.752-10.831-18.573-15.002c-6.822-4.172-13.48-7.386-19.972-9.635
	c5.036,0,10.169,1.128,15.399,3.377c5.232,2.25,10.229,5.197,15.002,8.841c4.771,3.644,9.175,7.816,13.213,12.522
	c4.039,4.699,7.452,9.502,10.236,14.401l-1.396,1.989c2.656,3.972,4.67,8.277,6.064,12.91c1.389,4.639,2.086,9.411,2.086,14.311
	c0,9.405-2.025,17.652-6.064,24.741c-4.038,7.083-9.138,12.977-15.293,17.682c-6.161,4.706-12.916,8.247-20.271,10.63
	c-7.355,2.383-14.274,3.578-20.766,3.578c-3.708,0-7.449-0.394-11.225-1.194c-3.774-0.794-7.586-2.123-11.427-3.972v1.195
	c3.711,2.116,7.519,3.578,11.427,4.366c3.908,0.8,7.783,1.194,11.625,1.194c9.535,0,18.904-2.086,28.115-6.258
	c9.205-4.178,16.984-10.036,23.346-17.585c-6.094,7.816-13.674,13.905-22.752,18.283c-9.071,4.366-18.51,6.555-28.312,6.555
	c-10.069,0-18.217-1.959-24.44-5.864c-6.229-3.905-11.095-8.708-14.605-14.408c-3.511-5.694-5.863-11.722-7.056-18.083
	c-1.191-6.355-1.788-12.055-1.788-17.088c0-6.755,0.895-13.377,2.683-19.865c1.789-6.488,4.539-12.455,8.247-17.888
	c3.708-5.427,8.478-10.097,14.308-14.008c5.828-3.905,12.847-6.652,21.061-8.247l-5.761-1.389c-2.783-0.661-4.77-1.456-5.961-2.383
	c-1.194-0.928-1.789-1.722-1.789-2.383c0-1.062,1.158-2.22,3.478-3.475C411.313,36.592,413.93,35.962,416.843,35.962z M407.902,61
	c3.578-1.328,7.022-1.989,10.333-1.989s5.861,0.497,7.649,1.492c1.789,0.995,2.684,2.019,2.684,3.081
	c0,0.661-0.761,1.389-2.286,2.183c-1.521,0.794-3.444,1.886-5.761,3.281c-2.319,1.395-4.836,3.147-7.553,5.264
	c-2.713,2.122-5.229,4.802-7.549,8.053c-2.316,3.238-4.239,7.18-5.761,11.818c-1.525,4.639-2.286,10.072-2.286,16.293
	c0,9.145,2.053,16.033,6.16,20.666c4.105,4.633,9.803,6.955,17.089,6.955c4.636,0,9.371-0.794,14.201-2.383
	c4.839-1.589,9.211-3.845,13.122-6.755c3.905-2.917,7.083-6.495,9.532-10.733c2.45-4.239,3.675-9.011,3.675-14.305
	c0-3.972-0.691-7.95-2.086-11.928c-1.389-3.966-3.311-7.78-5.761-11.424c-2.449-3.639-5.36-7.052-8.744-10.23
	c-3.371-3.184-7.052-5.894-11.023-8.144c-3.845-2.123-6.989-3.748-9.441-4.875c-2.45-1.122-4.206-2.219-5.264-3.274
	c-1.062,0.534-2.55,1.158-4.473,1.886c-1.919,0.734-4.469,1.825-7.649,3.281L407.902,61z M421.215,51.661
	c6.095,1.983,11.922,4.966,17.488,8.944c4.767,3.572,9.139,7.483,13.11,11.715c-3.839-4.5-8.017-8.538-12.516-12.116
	c-5.167-4.245-10.928-7.556-17.288-9.933L421.215,51.661z M459.763,119.413c-1.982,4.245-4.771,8.016-8.344,11.327
	c2.384-1.589,4.402-3.505,6.058-5.761c1.662-2.25,3.014-4.5,4.075-6.755c1.062-2.256,1.855-4.306,2.383-6.161
	c0.4-1.722,0.734-3.111,0.995-4.172C463.475,111.336,461.752,115.18,459.763,119.413z M473.074,136.501
	c-0.134,0.267-0.327,0.534-0.595,0.8c-0.133,0.134-0.267,0.194-0.399,0.194c-0.128,0,0.206-0.691,0.994-2.086
	c0.801-1.389,1.759-3.044,2.887-4.966c1.128-1.922,2.219-3.936,3.274-6.058c0.934-1.589,1.589-2.983,1.988-4.172
	C479.368,125.907,476.652,131.334,473.074,136.501z M484.208,104.314c0,2.122-0.134,4.208-0.4,6.258
	c-0.268,2.056-0.728,3.941-1.395,5.664c0.934-3.311,1.395-7.022,1.395-11.121c0-3.05-0.268-6.027-0.795-8.944
	c-0.394-2.516-0.928-4.966-1.589-7.355c0.661,2.389,1.256,4.772,1.789,7.156C483.874,98.62,484.208,101.403,484.208,104.314z
	 M421.215,48.478l-1.789-0.788c-0.13,0.261-0.33,0.527-0.594,0.788c-0.267,0.267-0.397,0.534-0.397,0.801
	c0,0.261,0.164,0.63,0.497,1.091c0.331,0.461,0.628,0.825,0.892,1.091L421.215,48.478z M453.008,73.715
	c-0.395-0.533-0.794-0.994-1.194-1.395C452.214,72.854,452.614,73.315,453.008,73.715z M481.223,120.213
	c0.134-0.267,0.2-0.534,0.2-0.8C481.423,119.68,481.357,119.947,481.223,120.213z M481.624,119.019
	c-0.133,0.133-0.2,0.267-0.2,0.394C481.423,119.286,481.491,119.152,481.624,119.019z"/>
<path fill="#333333" d="M174.928,160.15c-1.325,0.261-2.783,0.395-4.372,0.395h-5.764c-3.444,0-5.861,0.4-7.252,1.194
	s-2.219,1.195-2.483,1.195l-0.794-3.578v-3.578l-0.995-18.677c-0.264-3.578-0.995-7.422-2.186-11.527
	c-1.191-4.105-2.119-8.277-2.78-12.516c-0.397-2.783-0.73-5.433-0.995-7.95l-0.794-7.75c-0.264-2.65-0.564-5.364-0.895-8.147
	c-0.331-2.78-0.828-5.761-1.492-8.941c0-0.794,0.033-1.588,0.1-2.383c0.066-0.794,0.1-1.589,0.1-2.386
	c0-4.105-0.331-8.147-0.995-12.119c-0.661-3.975-1.589-7.883-2.78-11.725c0.928-0.397,1.789-0.761,2.583-1.091
	c0.794-0.333,1.522-0.498,2.186-0.498c0.661,0,1.389,0.761,2.186,2.283c0.794,1.525,1.656,4.669,2.583,9.438
	c0.264,0,0.661-0.097,1.191-0.297c0.531-0.197,0.928-0.297,1.191-0.297c-0.133-2.253-0.464-4.669-0.994-7.252
	c-0.528-2.583-1.059-5.066-1.589-7.453c-0.531-2.383-1.028-4.536-1.492-6.458c-0.461-1.919-0.694-3.478-0.694-4.669
	c0-0.264,0.033-0.598,0.1-0.995c0.066-0.397,0.364-0.594,0.895-0.594c0.661,0,1.522,0.728,2.583,2.186
	c1.058,1.455,2.186,3.311,3.377,5.563c1.192,2.253,2.35,4.669,3.478,7.252c1.125,2.583,2.153,5,3.081,7.252
	c3.575-6.755,7.65-11.888,12.219-15.399c4.569-3.511,10.566-5.266,17.982-5.266c5.427,0,9.866,0.63,13.311,1.889
	c3.444,1.258,6.13,2.65,8.053,4.172c1.916,1.522,3.214,2.947,3.869,4.272l1.195,1.986c0,0.794-0.395,1.325-1.195,1.592
	c-3.444-3.313-7.35-5.83-11.722-7.552s-8.871-2.583-13.51-2.583c-4.505,0-7.883,0.598-10.133,1.789
	c-2.122,1.061-4.372,2.383-6.758,3.975c2.52-1.592,4.836-2.847,6.952-3.774c2.256-0.928,5.5-1.392,9.738-1.392
	c4.639,0,9.072,0.894,13.316,2.683c4.239,1.786,7.883,4.072,10.927,6.855c-0.667,0.264-1.225,0.561-1.686,0.895
	c-0.467,0.331-0.703,0.828-0.703,1.489c0.667,0,1.395,0.431,2.189,1.292c0.794,0.861,1.522,1.889,2.189,3.081
	c0.661,1.191,1.225,2.417,1.686,3.675c0.46,1.258,0.697,2.286,0.697,3.081c0,2.252-0.861,3.377-2.583,3.377
	c-1.328,0-2.917-0.464-4.772-1.392c-0.394-0.13-1.225-0.861-2.48-2.183c-1.255-1.325-2.82-2.683-4.669-4.075
	c-1.855-1.392-3.972-2.683-6.361-3.875c-2.383-1.191-5.033-1.789-7.944-1.789c-2.389,0-4.475,0.498-6.258,1.492
	c-1.795,0.995-3.414,2.316-4.875,3.972c-1.455,1.658-2.78,3.544-3.972,5.664l-2.583,4.769c1.989-3.575,4.172-6.822,6.555-9.735
	c2.656-3.444,5.967-5.167,9.938-5.167c3.444,0,6.622,0.761,9.539,2.286c2.911,1.522,5.3,3.411,7.156,5.661
	c-2.256-0.925-4.906-1.853-7.956-2.78c-3.044-0.928-5.955-1.392-8.738-1.392c-1.461,0-2.716,0.331-3.777,0.994
	c-1.055,0.661-1.953,1.489-2.681,2.483c-0.728,0.995-1.395,2.086-1.989,3.277c-0.594,1.192-1.225,2.319-1.886,3.381l-2.583,0.394
	c-2.252,3.845-4.075,8.313-5.463,13.413c-1.392,5.1-2.086,10.433-2.086,15.997c0,3.311,0.164,6.289,0.494,8.944
	c0.333,2.644,0.828,5.36,1.492,8.144l2.383,6.161l-0.397-5.767c-0.264-4.5-0.53-8.508-0.794-12.019
	c-0.264-3.511-0.397-7.386-0.397-11.625c0.264-3.842,0.794-7.483,1.589-10.927c0.664-2.917,1.655-5.63,2.98-8.147
	c-1.589,3.178-2.647,6.822-3.178,10.927c-0.664,4.505-0.995,9.275-0.995,14.308c0,3.972,0.2,7.75,0.598,11.321
	c0.397,3.578,0.894,7.156,1.488,10.733c0.598,3.578,1.225,7.252,1.889,11.03c0.661,3.778,1.191,7.914,1.592,12.419l0.594,3.778
	l1.188,11.321L174.928,160.15z M177.308,71.33l-0.594,0.994L177.308,71.33z"/>
</svg>
